<svg width="7" height="11" viewBox="0 0 7 11" fill="none" xmlns="http://www.w3.org/2000/svg">
<path d="M0.91178 1.46379L0.823689 1.55218L0.911924 1.64042L2.84897 3.5776L4.72378 5.45253L2.84882 7.32762L0.911609 9.26496L0.823222 9.35336L0.911616 9.44174L1.19387 9.72397L1.19387 9.72397L1.47612 10.0062L1.56437 10.0945L1.65276 10.0064L2.27184 9.38923L2.89094 8.77211L2.89157 8.77147L4.49023 7.15466L6.08889 5.53785L6.17592 5.44982L6.08875 5.36194L3.88195 3.13696L1.67515 0.911975L1.63847 0.875H1.58639H1.56845H1.55049H1.49858L1.46195 0.911763L1.18686 1.18779L1.18686 1.18779L0.91178 1.46379Z" fill="black" stroke="black" stroke-width="0.25"/>
</svg>
