<svg width="15" height="15" viewBox="0 0 15 15" fill="none" xmlns="http://www.w3.org/2000/svg">
<g clip-path="url(#clip0_286_117)">
<path d="M7.50317 4.13086C5.63989 4.13086 4.13696 5.63379 4.13696 7.49707C4.13696 9.36035 5.63989 10.8633 7.50317 10.8633C9.36646 10.8633 10.8694 9.36035 10.8694 7.49707C10.8694 5.63379 9.36646 4.13086 7.50317 4.13086ZM7.50317 9.68555C6.29907 9.68555 5.3147 8.7041 5.3147 7.49707C5.3147 6.29004 6.29614 5.30859 7.50317 5.30859C8.71021 5.30859 9.69165 6.29004 9.69165 7.49707C9.69165 8.7041 8.70728 9.68555 7.50317 9.68555ZM11.7922 3.99316C11.7922 4.42969 11.4407 4.77832 11.0071 4.77832C10.5706 4.77832 10.2219 4.42676 10.2219 3.99316C10.2219 3.55957 10.5735 3.20801 11.0071 3.20801C11.4407 3.20801 11.7922 3.55957 11.7922 3.99316ZM14.0217 4.79004C13.9719 3.73828 13.7317 2.80664 12.9612 2.03906C12.1936 1.27148 11.262 1.03125 10.2102 0.978516C9.12622 0.916992 5.8772 0.916992 4.79321 0.978516C3.74438 1.02832 2.81274 1.26855 2.04224 2.03613C1.27173 2.80371 1.03442 3.73535 0.981689 4.78711C0.920166 5.87109 0.920166 9.12012 0.981689 10.2041C1.03149 11.2559 1.27173 12.1875 2.04224 12.9551C2.81274 13.7227 3.74146 13.9629 4.79321 14.0156C5.8772 14.0771 9.12622 14.0771 10.2102 14.0156C11.262 13.9658 12.1936 13.7256 12.9612 12.9551C13.7288 12.1875 13.969 11.2559 14.0217 10.2041C14.0833 9.12012 14.0833 5.87402 14.0217 4.79004ZM12.6213 11.3672C12.3928 11.9414 11.9504 12.3838 11.3733 12.6152C10.509 12.958 8.45825 12.8789 7.50317 12.8789C6.5481 12.8789 4.49438 12.9551 3.63306 12.6152C3.05884 12.3867 2.61646 11.9443 2.38501 11.3672C2.04224 10.5029 2.12134 8.45215 2.12134 7.49707C2.12134 6.54199 2.04517 4.48828 2.38501 3.62695C2.61353 3.05273 3.05591 2.61035 3.63306 2.37891C4.49731 2.03613 6.5481 2.11523 7.50317 2.11523C8.45825 2.11523 10.512 2.03906 11.3733 2.37891C11.9475 2.60742 12.3899 3.0498 12.6213 3.62695C12.9641 4.49121 12.885 6.54199 12.885 7.49707C12.885 8.45215 12.9641 10.5059 12.6213 11.3672Z" fill="white"/>
</g>
<defs>
<clipPath id="clip0_286_117">
<rect width="15" height="15" fill="white"/>
</clipPath>
</defs>
</svg>
