<svg width="350" height="351" viewBox="0 0 350 351" fill="none" xmlns="http://www.w3.org/2000/svg">
<path fill-rule="evenodd" clip-rule="evenodd" d="M171.469 27.074V54.148H175.196H178.924V27.074V0H175.196H171.469V27.074ZM219.434 33.447L219.535 62.5778L222.441 63.7581L225.348 64.9383L245.69 44.3421L266.031 23.7458V23.5195V23.293L262.93 22.0127L259.828 20.732L258.869 21.2543L257.91 21.7769L243.039 37.0349L228.167 52.2924L226.848 54.1032L225.53 55.9137L225.755 54.5404L225.98 53.167L226.253 30.9774L226.525 8.78727L226.269 7.76631L226.013 6.74535L223.095 5.53055L220.178 4.31614H219.756H219.333L219.434 33.447ZM125.88 6.55583L124.434 7.14989L124.17 7.79299L123.905 8.4361L121.279 24.4439L118.653 40.4517L117.888 39.601L117.124 38.7499L104.878 29.9901L92.6323 21.2299L92.1261 21.1138L91.62 20.9976L89.9524 21.5481L88.2848 22.0987V22.3831V22.668L102.807 32.9467L117.328 43.2254L117.843 43.7398L118.358 44.2546L122.427 54.106L126.498 63.9574H126.997H127.496L128.894 63.2904L130.293 62.6237L130.12 62.2113L129.947 61.7993L125.988 52.2728L122.029 42.7463V41.9553V41.1642L124.972 23.9864L127.915 6.80891V6.34709V5.88565L127.621 5.92371L127.326 5.96177L125.88 6.55583ZM52.0743 51.317L40.7844 62.6115L41.8964 63.6768L43.008 64.7421H43.2266H43.4447L54.5408 53.3491L65.6368 41.9557L64.7288 40.9892L63.8205 40.0224H63.5921H63.3637L52.0743 51.317ZM285.447 42.3837L283.508 44.3527L295.363 56.208L307.218 68.0632L309.388 65.9201L311.558 63.7769L299.882 52.0959L288.206 40.4148H287.796H287.386L285.447 42.3837ZM260.241 67.5896L249.552 78.2842L261.429 90.1568L273.306 102.029L275.448 99.8603L277.59 97.6916L268.381 88.4766L259.172 79.2613L265.639 72.7863L272.105 66.3109L279.573 73.7719L287.042 81.233L288.897 79.3503L290.751 77.4673V77.0855V76.7038L280.841 66.7994L270.931 56.8946L260.241 67.5896ZM67.8247 70.3936L58.1553 79.9377L68.3155 90.0924L78.4757 100.247L89.8519 88.8757L101.228 77.5046L100.051 76.3275L98.8742 75.1507L88.9659 85.0531L79.0572 94.9559L71.2168 87.108L63.3759 79.2601L71.5954 71.0335L79.8145 62.8073L78.8803 61.8127L77.946 60.8184L77.7204 60.8337L77.4944 60.8494L67.8247 70.3936ZM21.3818 89.3277L20.6885 91.1424L39.0858 109.431L57.4832 127.719H31.5863H5.68946L4.79916 129.484L3.90886 131.25L32.6359 131.351L61.3626 131.451L61.6585 131.155L61.9547 130.858L62.5515 129.427L63.1487 127.997L42.6117 107.755L22.0747 87.5129L21.3818 89.3277ZM317.433 103.307L306.25 118.628L296.478 122.679L286.705 126.729L286.552 126.882L286.398 127.036L287.773 130.32L289.149 133.604L289.459 133.532L289.77 133.459L299.383 129.458L308.997 125.458L327.528 128.33L346.06 131.201L346.31 130.951L346.56 130.7L345.369 127.836L344.177 124.972L343.263 124.315L342.349 123.657L329.204 121.858L316.059 120.058L314.31 120.063L312.561 120.067L314.162 118.4L315.762 116.732L323.414 106.506L331.066 96.2806L331.332 95.4425L331.598 94.604L330.345 91.5423L329.092 88.4809L328.854 88.233L328.615 87.9854L317.433 103.307ZM0 175.785V177.747H26.6816H53.3632V175.785V173.823H26.6816H0V175.785ZM296.637 175.785V177.747H323.318H350V175.785V173.823H323.318H296.637V175.785ZM288.019 220.882L287.613 221.64L287.242 222.614L286.872 223.588L307.399 243.821L327.926 264.054L328.619 262.241L329.312 260.427L310.914 242.139L292.517 223.851L318.254 223.965L343.992 224.078L344.437 223.542L344.882 223.006L345.485 221.564L346.087 220.123H317.256H288.424L288.019 220.882ZM51.7937 224.658L42.1805 228.716L41.3957 228.744L40.611 228.773L23.0329 225.775L5.45521 222.777L5.28217 222.95L5.10953 223.123L5.74439 224.74L6.37926 226.356L7.0153 226.618L7.65135 226.88L23.6591 229.506L39.6669 232.132L38.8163 232.896L37.9652 233.66L29.2054 245.906L20.4452 258.152L20.329 258.659L20.2129 259.165L20.7634 260.832L21.3139 262.5H21.5886H21.8632L32.1678 247.962L42.4728 233.424L42.9711 232.926L43.4698 232.427L53.3212 228.357L63.1726 224.287V223.788V223.289L62.5115 221.902L61.8503 220.516L61.6286 220.558L61.407 220.6L51.7937 224.658ZM75.5337 250.728L74.3832 251.928L84.2774 261.828L94.1712 271.728L86.3233 279.568L78.4753 287.409L70.2382 279.179L62.001 270.949L60.9243 272.025L59.8473 273.102L69.5539 282.809L79.2601 292.515L89.363 282.412L99.4655 272.309L88.0748 260.918L76.6837 249.527L75.5337 250.728ZM260.034 262.808L248.744 274.103L249.944 275.252L251.143 276.402L261.043 266.507L270.943 256.614L278.783 264.461L286.624 272.309L278.394 280.547L270.164 288.784L271.241 289.86L272.317 290.937L282.023 281.232L291.728 271.527L281.727 261.52L271.727 251.513H271.525H271.323L260.034 262.808ZM40.0165 286.245L39.0744 287.248L50.4318 298.61L61.7891 309.972L62.9529 308.809L64.1167 307.645L52.801 296.55L41.4848 285.454L41.2215 285.348L40.9582 285.243L40.0165 286.245ZM295.754 297.958L284.473 309.02V309.43V309.841L285.469 310.776L286.465 311.712L297.841 300.336L309.217 288.96L308.126 287.928L307.035 286.896L295.754 297.958ZM106.976 308.175L86.7325 328.712L88.5453 329.404L90.3577 330.096L108.646 311.699L126.934 293.302V319.198V345.095L128.7 345.986L130.465 346.876L130.566 318.149L130.667 289.422L130.37 289.126L130.073 288.83L128.646 288.234L127.219 287.639L106.976 308.175ZM220.994 288.303L219.706 288.943L219.88 289.357L220.053 289.77L224.012 299.297L227.971 308.823L227.979 309.498L227.988 310.174L224.99 327.752L221.993 345.33L222.165 345.503L222.338 345.675L223.955 345.04L225.571 344.405L225.833 343.769L226.095 343.133L228.721 327.126L231.347 311.118L232.112 311.968L232.876 312.82L245.122 321.579L257.368 330.34L257.874 330.456L258.38 330.572L260.048 330.021L261.715 329.471V329.186V328.901L247.193 318.623L232.672 308.344L232.157 307.83L231.642 307.315L227.573 297.463L223.502 287.612L222.892 287.637L222.281 287.662L220.994 288.303ZM173.038 324.103V350.785H175H176.962V324.103V297.422H175H173.038V324.103Z" fill="white"/>
</svg>
